<mxfile host="Electron" agent="Mozilla/5.0 (Windows NT 10.0; Win64; x64) AppleWebKit/537.36 (KHTML, like Gecko) draw.io/27.0.9 Chrome/134.0.6998.205 Electron/35.4.0 Safari/537.36" version="27.0.9">
  <diagram name="Page-1" id="OJgpqVPhE4AeG5XK7OkS">
    <mxGraphModel dx="1389" dy="835" grid="1" gridSize="10" guides="1" tooltips="1" connect="1" arrows="1" fold="1" page="1" pageScale="1" pageWidth="1920" pageHeight="1200" math="0" shadow="0">
      <root>
        <mxCell id="0" />
        <mxCell id="1" parent="0" />
        <mxCell id="AwduaEwtZV5_cRgP4oYI-1" value="" style="rounded=0;whiteSpace=wrap;html=1;fillColor=none;strokeColor=light-dark(#737373,#EDEDED);dashed=1;" vertex="1" parent="1">
          <mxGeometry x="50" y="180" width="180" height="590" as="geometry" />
        </mxCell>
        <mxCell id="AwduaEwtZV5_cRgP4oYI-2" value="&lt;font style=&quot;font-size: 30px;&quot;&gt;&lt;b style=&quot;&quot;&gt;High Level Architecture&lt;/b&gt;&lt;/font&gt;" style="text;html=1;align=center;verticalAlign=middle;whiteSpace=wrap;rounded=0;" vertex="1" parent="1">
          <mxGeometry y="20" width="370" height="40" as="geometry" />
        </mxCell>
        <mxCell id="AwduaEwtZV5_cRgP4oYI-4" style="edgeStyle=orthogonalEdgeStyle;rounded=0;orthogonalLoop=1;jettySize=auto;html=1;exitX=1;exitY=0.5;exitDx=0;exitDy=0;strokeColor=none;" edge="1" parent="1" source="AwduaEwtZV5_cRgP4oYI-8">
          <mxGeometry relative="1" as="geometry">
            <mxPoint x="610" y="330" as="targetPoint" />
          </mxGeometry>
        </mxCell>
        <mxCell id="AwduaEwtZV5_cRgP4oYI-3" value="&lt;font style=&quot;font-size: 24px;&quot;&gt;&lt;b&gt;Sources&lt;/b&gt;&lt;/font&gt;" style="text;html=1;align=center;verticalAlign=middle;whiteSpace=wrap;rounded=0;fillColor=default;" vertex="1" parent="1">
          <mxGeometry x="90" y="160" width="100" height="30" as="geometry" />
        </mxCell>
        <mxCell id="AwduaEwtZV5_cRgP4oYI-6" value="" style="rounded=0;whiteSpace=wrap;html=1;fillColor=none;strokeColor=light-dark(#737373,#EDEDED);dashed=1;" vertex="1" parent="1">
          <mxGeometry x="290" y="180" width="630" height="590" as="geometry" />
        </mxCell>
        <mxCell id="AwduaEwtZV5_cRgP4oYI-7" value="" style="rounded=0;whiteSpace=wrap;html=1;fillColor=none;strokeColor=light-dark(#737373,#EDEDED);dashed=1;" vertex="1" parent="1">
          <mxGeometry x="980" y="180" width="190" height="590" as="geometry" />
        </mxCell>
        <mxCell id="AwduaEwtZV5_cRgP4oYI-9" value="" style="edgeStyle=orthogonalEdgeStyle;rounded=0;orthogonalLoop=1;jettySize=auto;html=1;exitX=1;exitY=0.5;exitDx=0;exitDy=0;strokeColor=none;" edge="1" parent="1" source="AwduaEwtZV5_cRgP4oYI-3" target="AwduaEwtZV5_cRgP4oYI-8">
          <mxGeometry relative="1" as="geometry">
            <mxPoint x="610" y="330" as="targetPoint" />
            <mxPoint x="200" y="175" as="sourcePoint" />
          </mxGeometry>
        </mxCell>
        <mxCell id="AwduaEwtZV5_cRgP4oYI-8" value="&lt;font style=&quot;font-size: 24px;&quot;&gt;&lt;b&gt;Data Warehouse&lt;/b&gt;&lt;/font&gt;" style="text;html=1;align=center;verticalAlign=middle;whiteSpace=wrap;rounded=0;fillColor=default;" vertex="1" parent="1">
          <mxGeometry x="507.5" y="160" width="195" height="30" as="geometry" />
        </mxCell>
        <mxCell id="AwduaEwtZV5_cRgP4oYI-10" value="&lt;font style=&quot;font-size: 24px;&quot;&gt;&lt;b&gt;Consume&lt;/b&gt;&lt;/font&gt;" style="text;html=1;align=center;verticalAlign=middle;whiteSpace=wrap;rounded=0;fillColor=default;" vertex="1" parent="1">
          <mxGeometry x="1035" y="160" width="90" height="30" as="geometry" />
        </mxCell>
        <mxCell id="AwduaEwtZV5_cRgP4oYI-11" value="&lt;font style=&quot;font-size: 20px;&quot;&gt;&lt;b&gt;Bronze Layer&lt;/b&gt;&lt;/font&gt;" style="text;html=1;align=center;verticalAlign=middle;whiteSpace=wrap;rounded=0;fillColor=#ffe6cc;strokeColor=#d79b00;" vertex="1" parent="1">
          <mxGeometry x="320" y="210" width="160" height="30" as="geometry" />
        </mxCell>
        <mxCell id="AwduaEwtZV5_cRgP4oYI-12" value="&lt;font style=&quot;font-size: 20px;&quot;&gt;&lt;b&gt;Silver Layer&lt;/b&gt;&lt;/font&gt;" style="text;html=1;align=center;verticalAlign=middle;whiteSpace=wrap;rounded=0;fillColor=#F5F5F5;fontColor=#333333;strokeColor=#666666;" vertex="1" parent="1">
          <mxGeometry x="525" y="210" width="160" height="30" as="geometry" />
        </mxCell>
        <mxCell id="AwduaEwtZV5_cRgP4oYI-13" value="&lt;font style=&quot;font-size: 20px;&quot;&gt;&lt;b&gt;Gold Layer&lt;/b&gt;&lt;/font&gt;" style="text;html=1;align=center;verticalAlign=middle;whiteSpace=wrap;rounded=0;fillColor=#fff2cc;strokeColor=#d6b656;" vertex="1" parent="1">
          <mxGeometry x="730" y="210" width="160" height="30" as="geometry" />
        </mxCell>
        <mxCell id="AwduaEwtZV5_cRgP4oYI-16" value="" style="rounded=0;whiteSpace=wrap;html=1;fillColor=none;strokeColor=#d79b00;" vertex="1" parent="1">
          <mxGeometry x="320" y="250" width="160" height="500" as="geometry" />
        </mxCell>
        <mxCell id="AwduaEwtZV5_cRgP4oYI-18" value="" style="rounded=0;whiteSpace=wrap;html=1;fillColor=none;fontColor=#333333;strokeColor=light-dark(#737373,#EDEDED);" vertex="1" parent="1">
          <mxGeometry x="525" y="250" width="160" height="500" as="geometry" />
        </mxCell>
        <mxCell id="AwduaEwtZV5_cRgP4oYI-19" value="" style="rounded=0;whiteSpace=wrap;html=1;fillColor=none;strokeColor=#FFE599;" vertex="1" parent="1">
          <mxGeometry x="730" y="250" width="160" height="500" as="geometry" />
        </mxCell>
        <mxCell id="AwduaEwtZV5_cRgP4oYI-20" value="" style="image;aspect=fixed;html=1;points=[];align=center;fontSize=12;image=img/lib/azure2/general/Folder_Blank.svg;" vertex="1" parent="1">
          <mxGeometry x="115.5" y="300" width="49.28" height="40" as="geometry" />
        </mxCell>
        <mxCell id="AwduaEwtZV5_cRgP4oYI-21" value="" style="image;aspect=fixed;html=1;points=[];align=center;fontSize=12;image=img/lib/azure2/general/File.svg;" vertex="1" parent="1">
          <mxGeometry x="150" y="320" width="24.35" height="30" as="geometry" />
        </mxCell>
        <mxCell id="AwduaEwtZV5_cRgP4oYI-26" value="" style="image;aspect=fixed;html=1;points=[];align=center;fontSize=12;image=img/lib/azure2/general/Folder_Blank.svg;" vertex="1" parent="1">
          <mxGeometry x="115.5" y="420" width="49.28" height="40" as="geometry" />
        </mxCell>
        <mxCell id="AwduaEwtZV5_cRgP4oYI-27" value="" style="image;aspect=fixed;html=1;points=[];align=center;fontSize=12;image=img/lib/azure2/general/File.svg;" vertex="1" parent="1">
          <mxGeometry x="150" y="440" width="24.35" height="30" as="geometry" />
        </mxCell>
        <mxCell id="AwduaEwtZV5_cRgP4oYI-28" value="CRM" style="text;html=1;align=center;verticalAlign=middle;whiteSpace=wrap;rounded=0;" vertex="1" parent="1">
          <mxGeometry x="110.13999999999999" y="340" width="60" height="30" as="geometry" />
        </mxCell>
        <mxCell id="AwduaEwtZV5_cRgP4oYI-29" value="&lt;b&gt;ERP&lt;/b&gt;" style="text;html=1;align=center;verticalAlign=middle;whiteSpace=wrap;rounded=0;" vertex="1" parent="1">
          <mxGeometry x="110.13999999999997" y="460" width="60" height="30" as="geometry" />
        </mxCell>
        <mxCell id="AwduaEwtZV5_cRgP4oYI-31" value="" style="endArrow=none;html=1;rounded=0;" edge="1" parent="1">
          <mxGeometry width="50" height="50" relative="1" as="geometry">
            <mxPoint x="55.14" y="510" as="sourcePoint" />
            <mxPoint x="225.14" y="510" as="targetPoint" />
          </mxGeometry>
        </mxCell>
        <mxCell id="AwduaEwtZV5_cRgP4oYI-35" value="&lt;b&gt;Object Type: &lt;/b&gt;CSV File&lt;b&gt;&amp;nbsp;&lt;/b&gt;&lt;div&gt;&lt;b&gt;&lt;br&gt;&lt;/b&gt;&lt;div&gt;&lt;b&gt;Interface: &lt;/b&gt;Files in Folder&lt;/div&gt;&lt;/div&gt;" style="text;html=1;align=left;verticalAlign=middle;whiteSpace=wrap;rounded=0;spacingTop=0;spacingBottom=0;spacing=2;" vertex="1" parent="1">
          <mxGeometry x="65.14" y="530" width="150" height="50" as="geometry" />
        </mxCell>
        <mxCell id="AwduaEwtZV5_cRgP4oYI-36" value="" style="html=1;verticalLabelPosition=bottom;align=center;labelBackgroundColor=#ffffff;verticalAlign=top;strokeWidth=2;strokeColor=#d79b00;shadow=0;dashed=0;shape=mxgraph.ios7.icons.data;fillColor=#ffe6cc;" vertex="1" parent="1">
          <mxGeometry x="378" y="365" width="44" height="60" as="geometry" />
        </mxCell>
        <mxCell id="AwduaEwtZV5_cRgP4oYI-40" value="" style="html=1;verticalLabelPosition=bottom;align=center;labelBackgroundColor=#ffffff;verticalAlign=top;strokeWidth=2;strokeColor=#666666;shadow=0;dashed=0;shape=mxgraph.ios7.icons.data;fillColor=#f5f5f5;fontColor=#333333;" vertex="1" parent="1">
          <mxGeometry x="583" y="365" width="44" height="60" as="geometry" />
        </mxCell>
        <mxCell id="AwduaEwtZV5_cRgP4oYI-41" value="" style="html=1;verticalLabelPosition=bottom;align=center;labelBackgroundColor=#ffffff;verticalAlign=top;strokeWidth=2;strokeColor=#d6b656;shadow=0;dashed=0;shape=mxgraph.ios7.icons.data;fillColor=#fff2cc;" vertex="1" parent="1">
          <mxGeometry x="788" y="365" width="44" height="60" as="geometry" />
        </mxCell>
        <mxCell id="AwduaEwtZV5_cRgP4oYI-46" value="" style="html=1;shadow=0;dashed=0;align=center;verticalAlign=middle;shape=mxgraph.arrows2.arrow;dy=0.6;dx=40;notch=0;fillColor=#dae8fc;strokeColor=#6c8ebf;" vertex="1" parent="1">
          <mxGeometry x="210" y="380" width="100" height="30" as="geometry" />
        </mxCell>
        <mxCell id="AwduaEwtZV5_cRgP4oYI-48" value="" style="html=1;shadow=0;dashed=0;align=center;verticalAlign=middle;shape=mxgraph.arrows2.arrow;dy=0.6;dx=40;notch=0;fillColor=#dae8fc;strokeColor=#6c8ebf;" vertex="1" parent="1">
          <mxGeometry x="660" y="380" width="100" height="30" as="geometry" />
        </mxCell>
        <mxCell id="AwduaEwtZV5_cRgP4oYI-50" value="" style="html=1;shadow=0;dashed=0;align=center;verticalAlign=middle;shape=mxgraph.arrows2.arrow;dy=0.6;dx=40;notch=0;fillColor=#dae8fc;strokeColor=#6c8ebf;" vertex="1" parent="1">
          <mxGeometry x="450" y="380" width="100" height="30" as="geometry" />
        </mxCell>
        <mxCell id="AwduaEwtZV5_cRgP4oYI-51" value="" style="html=1;shadow=0;dashed=0;align=center;verticalAlign=middle;shape=mxgraph.arrows2.arrow;dy=0.6;dx=40;notch=0;fillColor=#dae8fc;strokeColor=#6c8ebf;" vertex="1" parent="1">
          <mxGeometry x="890" y="380" width="100" height="30" as="geometry" />
        </mxCell>
        <mxCell id="AwduaEwtZV5_cRgP4oYI-52" value="Raw Data" style="text;html=1;align=center;verticalAlign=middle;whiteSpace=wrap;rounded=0;" vertex="1" parent="1">
          <mxGeometry x="370" y="430" width="60" height="30" as="geometry" />
        </mxCell>
        <mxCell id="AwduaEwtZV5_cRgP4oYI-53" value="&lt;font&gt;Cleaned Standardized&lt;span style=&quot;background-color: transparent; color: light-dark(rgb(0, 0, 0), rgb(255, 255, 255));&quot;&gt;&amp;nbsp;&lt;/span&gt;&lt;/font&gt;&lt;div&gt;&lt;font&gt;&lt;span style=&quot;background-color: transparent; color: light-dark(rgb(0, 0, 0), rgb(255, 255, 255));&quot;&gt;Data&lt;/span&gt;&lt;/font&gt;&lt;/div&gt;" style="text;html=1;align=center;verticalAlign=middle;whiteSpace=wrap;rounded=0;" vertex="1" parent="1">
          <mxGeometry x="540" y="430" width="130" height="50" as="geometry" />
        </mxCell>
        <mxCell id="AwduaEwtZV5_cRgP4oYI-54" value="Business-Ready Data" style="text;html=1;align=center;verticalAlign=middle;whiteSpace=wrap;rounded=0;" vertex="1" parent="1">
          <mxGeometry x="745" y="430" width="130" height="30" as="geometry" />
        </mxCell>
        <mxCell id="AwduaEwtZV5_cRgP4oYI-55" value="" style="endArrow=none;html=1;rounded=0;" edge="1" parent="1">
          <mxGeometry width="50" height="50" relative="1" as="geometry">
            <mxPoint x="335" y="480" as="sourcePoint" />
            <mxPoint x="465" y="480" as="targetPoint" />
          </mxGeometry>
        </mxCell>
        <mxCell id="AwduaEwtZV5_cRgP4oYI-56" value="" style="endArrow=none;html=1;rounded=0;" edge="1" parent="1">
          <mxGeometry width="50" height="50" relative="1" as="geometry">
            <mxPoint x="540" y="480" as="sourcePoint" />
            <mxPoint x="670" y="480" as="targetPoint" />
          </mxGeometry>
        </mxCell>
        <mxCell id="AwduaEwtZV5_cRgP4oYI-57" value="" style="endArrow=none;html=1;rounded=0;" edge="1" parent="1">
          <mxGeometry width="50" height="50" relative="1" as="geometry">
            <mxPoint x="745" y="480" as="sourcePoint" />
            <mxPoint x="875" y="480" as="targetPoint" />
          </mxGeometry>
        </mxCell>
        <mxCell id="AwduaEwtZV5_cRgP4oYI-58" value="&lt;b&gt;Object Type: &lt;/b&gt;Tables&lt;div&gt;&lt;br&gt;&lt;/div&gt;&lt;div&gt;&lt;b&gt;Load:&lt;/b&gt;&lt;/div&gt;&lt;div&gt;&lt;b&gt;&lt;br&gt;&lt;/b&gt;&lt;/div&gt;&lt;div&gt;&lt;ul&gt;&lt;li&gt;Batch Processing&lt;/li&gt;&lt;li&gt;Full Load&lt;/li&gt;&lt;li&gt;Truncate &amp;amp; Insert&lt;/li&gt;&lt;/ul&gt;&lt;div&gt;No&amp;nbsp;&lt;b&gt;Transformations:&lt;/b&gt;&lt;/div&gt;&lt;div&gt;&lt;b&gt;&lt;br&gt;&lt;/b&gt;&lt;/div&gt;&lt;div&gt;&lt;b&gt;Data Model: &lt;/b&gt;None (as-is)&lt;/div&gt;&lt;/div&gt;" style="text;html=1;align=left;verticalAlign=top;whiteSpace=wrap;rounded=0;spacingTop=0;spacingBottom=0;spacing=2;" vertex="1" parent="1">
          <mxGeometry x="330" y="490" width="150" height="190" as="geometry" />
        </mxCell>
        <mxCell id="AwduaEwtZV5_cRgP4oYI-59" value="&lt;b&gt;Object Type: &lt;/b&gt;Tables&lt;div&gt;&lt;br&gt;&lt;/div&gt;&lt;div&gt;&lt;b&gt;Load:&lt;/b&gt;&lt;/div&gt;&lt;div&gt;&lt;ul&gt;&lt;li&gt;Batch Processing&lt;/li&gt;&lt;li&gt;Full Load&lt;/li&gt;&lt;li&gt;Truncate &amp;amp; Insert&lt;/li&gt;&lt;/ul&gt;&lt;div&gt;&lt;b&gt;Transformations:&lt;/b&gt;&lt;/div&gt;&lt;div&gt;&lt;ul&gt;&lt;li&gt;&lt;span style=&quot;background-color: transparent; color: light-dark(rgb(0, 0, 0), rgb(255, 255, 255));&quot;&gt;Data Cleaning&lt;/span&gt;&lt;/li&gt;&lt;li&gt;Data Standardization&lt;/li&gt;&lt;li&gt;Derived Columnns&lt;/li&gt;&lt;li&gt;Data Enrichment&lt;/li&gt;&lt;/ul&gt;&lt;/div&gt;&lt;div&gt;&lt;b&gt;&lt;br&gt;&lt;/b&gt;&lt;/div&gt;&lt;div&gt;&lt;b&gt;Data Model: &lt;/b&gt;None (as-is)&lt;/div&gt;&lt;/div&gt;" style="text;html=1;align=left;verticalAlign=top;whiteSpace=wrap;rounded=0;spacingTop=0;spacingBottom=0;spacing=2;" vertex="1" parent="1">
          <mxGeometry x="530" y="490" width="152.5" height="260" as="geometry" />
        </mxCell>
        <mxCell id="AwduaEwtZV5_cRgP4oYI-60" value="&lt;b&gt;Object Type: &lt;/b&gt;Views&lt;div&gt;&lt;br&gt;&lt;div&gt;No&amp;nbsp;&lt;b&gt;Load:&lt;/b&gt;&lt;/div&gt;&lt;div&gt;&lt;b&gt;&lt;br&gt;&lt;/b&gt;&lt;/div&gt;&lt;div&gt;&lt;div&gt;&lt;b&gt;Transformations:&lt;/b&gt;&lt;/div&gt;&lt;div&gt;&lt;ul&gt;&lt;li&gt;&lt;span style=&quot;background-color: transparent; color: light-dark(rgb(0, 0, 0), rgb(255, 255, 255));&quot;&gt;Data Integrations&lt;/span&gt;&lt;/li&gt;&lt;li&gt;Aggregations&lt;/li&gt;&lt;li&gt;Business Logics&lt;/li&gt;&lt;/ul&gt;&lt;/div&gt;&lt;div&gt;&lt;b&gt;&lt;br&gt;&lt;/b&gt;&lt;/div&gt;&lt;div&gt;&lt;b&gt;Data Model:&amp;nbsp;&lt;/b&gt;&lt;/div&gt;&lt;/div&gt;&lt;/div&gt;&lt;div&gt;&lt;ul&gt;&lt;li&gt;Star Schema&lt;/li&gt;&lt;li&gt;Flat Table&lt;/li&gt;&lt;li&gt;Aggregated Table&lt;/li&gt;&lt;/ul&gt;&lt;/div&gt;" style="text;html=1;align=left;verticalAlign=top;whiteSpace=wrap;rounded=0;spacingTop=0;spacingBottom=0;spacing=2;" vertex="1" parent="1">
          <mxGeometry x="740" y="490" width="147.5" height="260" as="geometry" />
        </mxCell>
        <mxCell id="AwduaEwtZV5_cRgP4oYI-65" value="BI &amp;amp; Reporting&lt;div&gt;&lt;br&gt;&lt;/div&gt;&lt;div&gt;&lt;br&gt;&lt;/div&gt;&lt;div&gt;&lt;br&gt;&lt;/div&gt;&lt;div&gt;&lt;br&gt;&lt;/div&gt;&lt;div&gt;&lt;br&gt;&lt;/div&gt;&lt;div&gt;&lt;br&gt;&lt;/div&gt;&lt;div&gt;&lt;br&gt;&lt;/div&gt;&lt;div&gt;&lt;br&gt;&lt;/div&gt;&lt;div&gt;&lt;br&gt;&lt;/div&gt;&lt;div&gt;&lt;br&gt;&lt;/div&gt;&lt;div&gt;&lt;br&gt;&lt;/div&gt;&lt;div&gt;Ad-Hoc&lt;/div&gt;&lt;div&gt;SQL Queries&lt;/div&gt;&lt;div&gt;&lt;br&gt;&lt;/div&gt;&lt;div&gt;&lt;br&gt;&lt;/div&gt;&lt;div&gt;&lt;br&gt;&lt;/div&gt;&lt;div&gt;&lt;br&gt;&lt;/div&gt;&lt;div&gt;&lt;br&gt;&lt;/div&gt;&lt;div&gt;&lt;br&gt;&lt;/div&gt;&lt;div&gt;&lt;br&gt;&lt;/div&gt;&lt;div&gt;&lt;br&gt;&lt;/div&gt;&lt;div&gt;&lt;br&gt;&lt;/div&gt;&lt;div&gt;&lt;br&gt;&lt;/div&gt;&lt;div&gt;&amp;nbsp;Machine Learning&lt;/div&gt;" style="text;html=1;align=center;verticalAlign=top;whiteSpace=wrap;rounded=0;" vertex="1" parent="1">
          <mxGeometry x="1025" y="305.5" width="110" height="389" as="geometry" />
        </mxCell>
        <mxCell id="AwduaEwtZV5_cRgP4oYI-66" value="" style="image;sketch=0;aspect=fixed;html=1;points=[];align=center;fontSize=12;image=img/lib/mscae/SQL_Servers.svg;" vertex="1" parent="1">
          <mxGeometry x="290" y="130" width="50" height="50" as="geometry" />
        </mxCell>
        <mxCell id="AwduaEwtZV5_cRgP4oYI-67" value="" style="image;aspect=fixed;html=1;points=[];align=center;fontSize=12;image=img/lib/azure2/power_platform/PowerBI.svg;" vertex="1" parent="1">
          <mxGeometry x="1049.5" y="232" width="51" height="68" as="geometry" />
        </mxCell>
        <mxCell id="AwduaEwtZV5_cRgP4oYI-68" value="" style="sketch=0;html=1;aspect=fixed;strokeColor=none;shadow=0;fillColor=#3B8DF1;verticalAlign=top;labelPosition=center;verticalLabelPosition=bottom;shape=mxgraph.gcp2.big_query" vertex="1" parent="1">
          <mxGeometry x="1040.35" y="405" width="69.3" height="70" as="geometry" />
        </mxCell>
        <mxCell id="AwduaEwtZV5_cRgP4oYI-69" value="" style="points=[];aspect=fixed;html=1;align=center;shadow=0;dashed=0;fillColor=#FF6A00;strokeColor=none;shape=mxgraph.alibaba_cloud.machine_learning;" vertex="1" parent="1">
          <mxGeometry x="1055.1" y="590" width="49.8" height="50.099999999999994" as="geometry" />
        </mxCell>
      </root>
    </mxGraphModel>
  </diagram>
</mxfile>
